<?xml version="1.0" encoding="UTF-8"?>
<svg width="820" height="460" viewBox="0 0 820 460" fill="none" xmlns="http://www.w3.org/2000/svg" role="img" aria-labelledby="title desc">
  <title id="title">Minimalist campus building illustration</title>
  <desc id="desc">Modern university building with thin black outlines, soft gray tones, subtle clouds and minimal trees on a white background. A single teal entrance door highlights the focal point.</desc>

  <!-- Pure white background -->
  <rect x="0" y="0" width="820" height="460" fill="#FFFFFF"/>

  <!-- Subtle horizontal ground lines -->
  <line x1="120" y1="360" x2="700" y2="360" stroke="#111111" stroke-width="2" stroke-linecap="round"/>
  <line x1="200" y1="374" x2="620" y2="374" stroke="#111111" stroke-width="2" stroke-linecap="round" opacity="0.5"/>

  <!-- Subtle clouds (soft gray with thin outlines) -->
  <g stroke="#111111" stroke-width="2" fill="#ECEFF3" opacity="0.9">
    <path d="M168 118c10-18 34-22 50-10 12-20 44-18 56 4 20-6 34 8 34 22H168z"/>
    <path d="M560 102c8-14 28-18 42-8 10-16 36-14 46 3 16-5 28 6 28 18H560z"/>
  </g>

  <!-- Building block (soft gray fill, thin black outline) -->
  <g stroke="#111111" stroke-width="2" stroke-linejoin="round">
    <rect x="220" y="140" width="380" height="200" rx="4" fill="#F4F6FA"/>
    <!-- Roof detail line -->
    <line x1="220" y1="180" x2="600" y2="180"/>

    <!-- Window grid (outline only, no color fill) -->
    <g fill="none">
      <!-- row 1 -->
      <rect x="250" y="196" width="44" height="30"/>
      <rect x="304" y="196" width="44" height="30"/>
      <rect x="358" y="196" width="44" height="30"/>
      <rect x="412" y="196" width="44" height="30"/>
      <rect x="466" y="196" width="44" height="30"/>
      <rect x="520" y="196" width="44" height="30"/>
      <!-- row 2 -->
      <rect x="250" y="236" width="44" height="30"/>
      <rect x="304" y="236" width="44" height="30"/>
      <rect x="358" y="236" width="44" height="30"/>
      <rect x="412" y="236" width="44" height="30"/>
      <rect x="466" y="236" width="44" height="30"/>
      <rect x="520" y="236" width="44" height="30"/>
      <!-- row 3 -->
      <rect x="250" y="276" width="44" height="30"/>
      <rect x="304" y="276" width="44" height="30"/>
      <rect x="358" y="276" width="44" height="30"/>
      <rect x="412" y="276" width="44" height="30"/>
      <rect x="466" y="276" width="44" height="30"/>
      <rect x="520" y="276" width="44" height="30"/>
    </g>

    <!-- Entrance door (single teal accent) -->
    <rect x="390" y="300" width="40" height="40" fill="#00A5A0" stroke="#111111"/>
  </g>

  <!-- Minimal trees (grayscale only) -->
  <g stroke="#111111" stroke-width="2" fill="#E9EDF2">
    <line x1="200" y1="328" x2="200" y2="360"/>
    <circle cx="200" cy="316" r="12"/>
    <line x1="630" y1="330" x2="630" y2="360"/>
    <circle cx="630" cy="318" r="14"/>
  </g>
</svg>
