<?xml version="1.0" encoding="UTF-8"?>
<svg xmlns="http://www.w3.org/2000/svg" viewBox="0 0 1200 1200" role="img" aria-labelledby="title desc">
  <title id="title">Engineering disciplines radial iconography</title>
  <desc id="desc">Black thin line-art engineering icons arranged in a circular radial pattern on a white background, emanating from a teal geometric center with teal connecting lines. Icons: mechanical gears, electrical circuit, civil blueprint, chemical beaker, computer code, robotic arm components, bridge structure, mathematical symbols.</desc>
  <defs>
    <style>
      .line { stroke: #0a0a0a; stroke-width: 2.5; fill: none; stroke-linecap: round; stroke-linejoin: round; }
      .thin { stroke-width: 2; }
      .teal { stroke: #007a78; }
      .fill-teal { fill: #007a78; }
      .muted { opacity: 0.9; }
    </style>
  </defs>

  <!-- Background -->
  <rect x="0" y="0" width="1200" height="1200" fill="#ffffff"/>

  <!-- Center teal geometric hub (hexagon + dot) -->
  <g transform="translate(600,600)">
    <polygon class="fill-teal muted" points="0,-52 45,-26 45,26 0,52 -45,26 -45,-26"/>
    <circle r="6" fill="#ffffff"/>
  </g>

  <!-- Teal radial connectors -->
  <g class="teal" stroke-width="3">
    <!-- 8 spokes -->
    <line x1="600" y1="600" x2="930" y2="600"/>
    <line x1="600" y1="600" x2="270" y2="600"/>
    <line x1="600" y1="600" x2="600" y2="270"/>
    <line x1="600" y1="600" x2="600" y2="930"/>
    <line x1="600" y1="600" x2="860" y2="340"/>
    <line x1="600" y1="600" x2="340" y2="340"/>
    <line x1="600" y1="600" x2="860" y2="860"/>
    <line x1="600" y1="600" x2="340" y2="860"/>
  </g>

  <!-- Teal end nodes -->
  <g fill="#007a78">
    <circle cx="930" cy="600" r="6"/>
    <circle cx="270" cy="600" r="6"/>
    <circle cx="600" cy="270" r="6"/>
    <circle cx="600" cy="930" r="6"/>
    <circle cx="860" cy="340" r="6"/>
    <circle cx="340" cy="340" r="6"/>
    <circle cx="860" cy="860" r="6"/>
    <circle cx="340" cy="860" r="6"/>
  </g>

  <!-- Icon ring (radius ~360-390 around center) -->
  <!-- Mechanical gears (0° / east) -->
  <g transform="translate(965,600)">
    <g class="line">
      <!-- Outer gear simplified -->
      <circle cx="0" cy="0" r="52"/>
      <!-- teeth ticks -->
      <g>
        <line x1="0" y1="-60" x2="0" y2="-70"/>
        <line x1="0" y1="60" x2="0" y2="70"/>
        <line x1="60" y1="0" x2="70" y2="0"/>
        <line x1="-60" y1="0" x2="-70" y2="0"/>
        <line x1="42" y1="42" x2="49" y2="49"/>
        <line x1="-42" y1="42" x2="-49" y2="49"/>
        <line x1="42" y1="-42" x2="49" y2="-49"/>
        <line x1="-42" y1="-42" x2="-49" y2="-49"/>
      </g>
      <circle cx="0" cy="0" r="18"/>
      <!-- Inner gear offset -->
      <g transform="translate(-38,34)">
        <circle cx="0" cy="0" r="28"/>
        <circle cx="0" cy="0" r="10"/>
        <line x1="0" y1="-35" x2="0" y2="-42"/>
        <line x1="30" y1="0" x2="37" y2="0"/>
        <line x1="0" y1="35" x2="0" y2="42"/>
        <line x1="-30" y1="0" x2="-37" y2="0"/>
      </g>
    </g>
  </g>

  <!-- Electrical circuit (45° / NE) -->
  <g transform="translate(885,355)">
    <g class="line thin">
      <rect x="-60" y="-40" width="120" height="80" rx="6" ry="6"/>
      <!-- Nodes -->
      <circle cx="-90" cy="0" r="3"/>
      <circle cx="90" cy="0" r="3"/>
      <!-- Leads -->
      <line x1="-90" y1="0" x2="-60" y2="0"/>
      <line x1="60" y1="0" x2="90" y2="0"/>
      <!-- Resistor inside -->
      <polyline points="-40,0 -30,-12 -20,12 -10,-12 0,12 10,-12 20,12 30,-12 40,0"/>
      <!-- Capacitor branch -->
      <line x1="0" y1="-40" x2="0" y2="-60"/>
      <line x1="-10" y1="-60" x2="10" y2="-60"/>
    </g>
  </g>

  <!-- Civil engineering blueprint (90° / north) -->
  <g transform="translate(600,235)">
    <g class="line thin">
      <rect x="-70" y="-50" width="140" height="100"/>
      <!-- rolled corner -->
      <path d="M70,-50 c-18,0 -18,18 -18,18 h18 z"/>
      <!-- grid -->
      <line x1="-50" y1="-30" x2="50" y2="-30"/>
      <line x1="-50" y1="0" x2="50" y2="0"/>
      <line x1="-50" y1="30" x2="50" y2="30"/>
      <line x1="-30" y1="-40" x2="-30" y2="40"/>
      <line x1="0" y1="-40" x2="0" y2="40"/>
      <line x1="30" y1="-40" x2="30" y2="40"/>
      <!-- dimension arrows -->
      <line x1="-60" y1="55" x2="60" y2="55"/>
      <polyline points="-60,55 -52,50 -52,60"/>
      <polyline points="60,55 52,50 52,60"/>
    </g>
  </g>

  <!-- Chemical beaker (135° / NW) -->
  <g transform="translate(315,355)">
    <g class="line thin">
      <path d="M-25,-50 h50 l-10,10 v54 a20,20 0 0 1 -20,20 h-10 a20,20 0 0 1 -20,-20 v-54 z"/>
      <!-- liquid level -->
      <path d="M-40,10 q20,-12 40,0 q20,12 40,0"/>
      <!-- bubbles -->
      <circle cx="-10" cy="-5" r="3"/>
      <circle cx="15" cy="5" r="2.5"/>
    </g>
  </g>

  <!-- Computer code (180° / west) -->
  <g transform="translate(235,600)">
    <g class="line" stroke-width="3">
      <polyline points="-25,-28 -60,0 -25,28"/>
      <polyline points="25,-28 60,0 25,28"/>
      <line x1="-5" y1="-36" x2="5" y2="36"/>
    </g>
  </g>

  <!-- Robotic components (225° / SW) -->
  <g transform="translate(315,845)">
    <g class="line thin">
      <!-- base -->
      <rect x="-60" y="35" width="120" height="18"/>
      <!-- joints and links -->
      <circle cx="-30" cy="10" r="8"/>
      <circle cx="10" cy="-10" r="8"/>
      <line x1="-30" y1="10" x2="10" y2="-10"/>
      <circle cx="50" cy="-30" r="8"/>
      <line x1="10" y1="-10" x2="50" y2="-30"/>
      <!-- gripper -->
      <polyline points="50,-30 65,-45 75,-35"/>
      <polyline points="50,-30 65,-15 75,-25"/>
    </g>
  </g>

  <!-- Bridge structure (270° / south) -->
  <g transform="translate(600,965)">
    <g class="line thin">
      <!-- deck -->
      <line x1="-90" y1="0" x2="90" y2="0"/>
      <!-- arch -->
      <path d="M-90,0 q90,-70 180,0"/>
      <!-- suspenders -->
      <line x1="-60" y1="0" x2="-60" y2="-32"/>
      <line x1="-30" y1="0" x2="-30" y2="-46"/>
      <line x1="0" y1="0" x2="0" y2="-52"/>
      <line x1="30" y1="0" x2="30" y2="-46"/>
      <line x1="60" y1="0" x2="60" y2="-32"/>
    </g>
  </g>

  <!-- Mathematical symbols (315° / SE) -->
  <g transform="translate(885,845)">
    <g class="line" stroke-width="3">
      <!-- Sigma -->
      <path d="M-60,-40 h70 l-40,40 l40,40 h-70"/>
      <!-- Pi -->
      <path d="M10,-40 h70 m-35,0 v80 m-25,-80 v50 q0,18 18,18"/>
    </g>
  </g>

  <!-- Label ring (optional subtle circle) -->
  <circle cx="600" cy="600" r="365" class="teal" stroke-opacity="0.25" fill="none" stroke-dasharray="4 8"/>

</svg>
